<?xml version="1.0" encoding="utf-8"?>
<!-- Generator: Adobe Illustrator 21.1.0, SVG Export Plug-In . SVG Version: 6.00 Build 0)  -->
<svg version="1.1" id="Layer_1" xmlns="http://www.w3.org/2000/svg" xmlns:xlink="http://www.w3.org/1999/xlink" x="0px" y="0px"
	 width="542px" height="264px" viewBox="0 0 542 264" style="enable-background:new 0 0 542 264;" xml:space="preserve">
<style type="text/css">
	.st0{fill:transparent;}
	rect, circle, ellipse, line, polyline, polygon, path {
		fill:#82b9d5;
	}
</style>
<g>
	<g>
		<path class="st0" d="M-43.2,288.8c0-101.5,0-203,0-304.7c206,0,412.1,0,618.4,0c0,101.5,0,203.1,0,304.7
			C369.2,288.8,163,288.8-43.2,288.8z M261.2,237.5c2,1.5,3.4,2.7,5,3.7c27.6,17.8,57.4,19,87.8,9.8c25.3-7.6,38.8-25.4,40.8-51.6
			c0.8-10.6,0.4-21.2,0.6-31.8c0-1.7,0.2-3.3,0.4-6.6c1.2,2.3,1.6,3,1.9,3.7c15.3,34.6,50.7,50.8,86.9,39.8
			c22.3-6.8,37.1-22.8,46.9-42.6c6.3-12.7,5.3-27.5,0.5-41.2c-10.4-29.6-32.2-45.5-62.8-48.2c-29.8-2.6-53.5,9.2-69.8,34.8
			c-1.1,1.7-2,3.4-3,5c-0.4-0.1-0.7-0.2-1.1-0.3c0-11.5,0-22.9,0-34.4c-15.9,0-31.2,0-47.1,0c0,4,0,7.6,0,12.5
			c-15.2-16-32.6-19.2-51.9-14c-19.9,5.3-31.3,19.2-37.3,39.4c-7.7-17.5-19.3-29.4-36-36c-15-5.9-30.6-7.1-46.3-4.2
			c-34.5,6.4-55.6,32.4-54.9,67.5c0.1,5.2,0.8,10.5,1.2,16c-21.2,0-42.1,0-63.8,0c0-43.8,0-87.3,0-130.8c-17.9,0-35,0-52,0
			c0,59.1,0,117.7,0,176.3c39.8,0,79.1,0,119.2,0c0-11.9,0-23.4,0-34.9c14.8,28.1,38.6,39.4,68.7,38.5c30.3-0.9,52.9-14.2,65.1-44.5
			c6.4,19.4,18.7,31.8,37.6,36.3c18.9,4.5,36,0.9,49.8-14.6c2.8,15.3-3,26.8-15.9,30.6c-5.8,1.7-12.3,2.2-18.4,1.9
			c-11.9-0.6-22.8-4.7-32.3-13.2C274.2,215.6,267.8,226.3,261.2,237.5z"/>
		<path d="M261.2,237.5c6.7-11.3,13-22,19.6-33.1c9.5,8.5,20.4,12.6,32.3,13.2c6.1,0.3,12.6-0.2,18.4-1.9
			c12.9-3.8,18.7-15.3,15.9-30.6c-13.8,15.5-30.9,19.1-49.8,14.6c-18.9-4.5-31.2-16.9-37.6-36.3c-12.2,30.3-34.8,43.6-65.1,44.5
			c-30.1,0.9-53.9-10.5-68.7-38.5c0,11.5,0,22.9,0,34.9c-40.1,0-79.4,0-119.2,0c0-58.5,0-117.2,0-176.3c17,0,34.2,0,52,0
			c0,43.5,0,87,0,130.8c21.7,0,42.6,0,63.8,0c-0.4-5.5-1.1-10.7-1.2-16c-0.7-35.1,20.4-61.1,54.9-67.5c15.8-2.9,31.3-1.7,46.3,4.2
			c16.8,6.6,28.4,18.4,36,36c6-20.1,17.4-34.1,37.3-39.4c19.3-5.2,36.7-2,51.9,14c0-4.9,0-8.6,0-12.5c16,0,31.2,0,47.1,0
			c0,11.5,0,23,0,34.4c0.4,0.1,0.7,0.2,1.1,0.3c1-1.7,2-3.4,3-5c16.3-25.6,40-37.4,69.8-34.8c30.6,2.7,52.4,18.6,62.8,48.2
			c4.8,13.7,5.7,28.4-0.5,41.2c-9.8,19.9-24.6,35.8-46.9,42.6c-36.2,11.1-71.6-5.2-86.9-39.8c-0.3-0.7-0.7-1.3-1.9-3.7
			c-0.2,3.2-0.4,4.9-0.4,6.6c-0.2,10.6,0.2,21.2-0.6,31.8c-2,26.2-15.5,44-40.8,51.6c-30.5,9.1-60.2,7.9-87.8-9.8
			C264.6,240.2,263.1,239,261.2,237.5z M402.6,162.1c10,23.3,27.5,37,52.4,39.9c25.4,3,45.8-6.6,60.8-26.4c-2-4.2-3.4-7.9-5.5-11.1
			c-1.8-2.6-4.4-6.5-6.7-6.5c-2.7,0-5.9,3.1-8.1,5.5c-2.2,2.5-3.3,6-5.3,8.7c-4.6,6.2-11.8,6.4-17,0.7c-7-7.7-16.8-7.2-23.3,1.1
			c-1.5,1.9-2.8,4.1-4.3,6c-4.5,5.6-10,5.5-14-0.4c-2.1-3.1-3.6-6.7-4.9-10.2c-5.8-15.3-8.2-16.3-22.6-8.6
			C403.9,160.8,403.6,161.1,402.6,162.1z M215.9,140.7c-0.7-15.7-9.5-25.2-23.8-25.1c-13.8,0.1-23.1,10.5-22.6,25.7
			c0.1,3.2,0.9,6.3,1.7,9.4c2.2,8.9,8.9,14.9,17.3,15.6c11.9,1,20.3-2.9,24-11.9C214.3,150,214.8,145.2,215.9,140.7z M348.3,137.6
			c0.3-0.1,0.7-0.1,1-0.2c-1.1-5.3-0.6-12.1-3.7-15.6c-5.6-6.3-14.3-7-22.7-5.8c-0.9,0.1-1.8,0.5-2.7,0.7
			c-10.2,2.8-15.3,9.6-15.3,20.4c0,11,5.6,19.9,15.3,21.6c5.9,1,12.5,0.6,18.3-1c9-2.4,9.8-4.6,9.8-13.8
			C348.3,141.8,348.3,139.7,348.3,137.6z M462.8,163.1c12.7,0,22.3-9.6,22.4-22.2c0-11.5-10-21.2-22.1-21.4
			c-12.2-0.2-22.7,9.8-22.6,21.4C440.5,153.5,450.1,163.1,462.8,163.1z M513.6,152.6c0.8-0.2,1.3-0.2,1.5-0.4
			c3.8-3.9,7.7-7.7,11.3-11.7c0.6-0.7,0.5-2.8-0.1-3.5c-0.6-0.7-2.8-1.1-3.4-0.6c-4,3.4-7.8,7-11.4,10.8c-0.6,0.7,0,2.7,0.4,4.1
			C512,151.8,513.1,152.2,513.6,152.6z M494.7,115.9c-1.1,0.8-2.5,1.2-2.7,2c-0.3,1-0.1,2.7,0.7,3.5c3.2,3.2,6.5,6.3,10,9.1
			c1,0.8,3,0.2,4.5,0.2c-0.3-1.6,0-3.6-0.9-4.7c-2.2-2.6-4.9-4.7-7.4-6.9C497.6,118,496.2,117,494.7,115.9z M423.5,108.2
			c-5.1,2.2-9.9,4-14.5,6.2c-0.9,0.4-1.8,2.7-1.5,3.1c0.8,1,2.6,2.2,3.5,1.9c4.8-1.6,9.5-3.6,14.1-5.8c0.8-0.4,1.3-2.4,1-3.3
			C426,109.4,424.4,108.8,423.5,108.2z M451.6,80.2c-0.9,0.8-2.4,1.4-2.6,2.4c-0.2,1,0.5,2.9,1.3,3.2c4.7,2,9.4,3.8,14.3,5.4
			c0.8,0.3,2.7-0.7,3.1-1.6c0.4-0.8-0.2-3-0.9-3.3C461.9,84.1,457,82.3,451.6,80.2z M411,128.5c-0.3,2.7-1.4,5-0.6,6
			c2.6,3.7,5.6,7.1,8.8,10.3c0.8,0.8,2.9,0.4,4.4,0.6c-0.1-1.5,0.4-3.5-0.3-4.5c-2.4-3.4-5.3-6.4-8.1-9.5
			C414.5,130.6,413.4,130.1,411,128.5z M496.1,90.5c-1.9,0.5-2.5,0.5-2.9,0.8c-3.8,3.6-7.7,7.1-11.4,10.8c-0.5,0.5-0.4,2.7,0,2.9
			c1.1,0.6,3.2,1.3,3.9,0.7c3.9-3.2,7.6-6.7,11-10.4C497.4,94.6,496.4,92.3,496.1,90.5z M444.4,113.3c4.5-3.7,9.1-7.2,13.5-11
			c0.4-0.3,0.2-2.2-0.2-2.5c-1-0.7-2.8-1.4-3.4-1c-4.4,2.9-8.6,6-12.7,9.3c-0.6,0.5-0.7,2.2-0.3,3
			C441.7,112.1,443,112.4,444.4,113.3z"/>
		<path class="st0" d="M402.6,162.1c1-0.9,1.3-1.3,1.6-1.4c14.4-7.7,16.8-6.7,22.6,8.6c1.3,3.5,2.8,7.1,4.9,10.2c4,5.9,9.5,6,14,0.4
			c1.5-1.9,2.8-4.1,4.3-6c6.4-8.3,16.2-8.7,23.3-1.1c5.2,5.7,12.3,5.5,17-0.7c2-2.7,3.1-6.2,5.3-8.7c2.2-2.4,5.4-5.6,8.1-5.5
			c2.3,0,4.9,3.9,6.7,6.5c2.1,3.2,3.5,7,5.5,11.1c-15,19.8-35.5,29.4-60.8,26.4C430.1,199,412.6,185.4,402.6,162.1z"/>
		<path class="st0" d="M215.9,140.7c-1.1,4.6-1.6,9.3-3.4,13.6c-3.7,9-12.1,12.9-24,11.9c-8.4-0.7-15.1-6.6-17.3-15.6
			c-0.8-3.1-1.6-6.3-1.7-9.4c-0.5-15.1,8.7-25.5,22.6-25.7C206.3,115.4,215.2,125,215.9,140.7z"/>
		<path class="st0" d="M348.3,137.6c0,2.1,0,4.2,0,6.2c0,9.2-0.8,11.4-9.8,13.8c-5.8,1.6-12.4,2-18.3,1
			c-9.7-1.7-15.3-10.6-15.3-21.6c0-10.8,5.1-17.6,15.3-20.4c0.9-0.2,1.8-0.6,2.7-0.7c8.4-1.2,17.1-0.5,22.7,5.8
			c3.1,3.5,2.6,10.3,3.7,15.6C349,137.5,348.6,137.6,348.3,137.6z"/>
		<path class="st0" d="M462.8,163.1c-12.7,0-22.3-9.6-22.4-22.2c-0.1-11.7,10.4-21.6,22.6-21.4c12,0.2,22.1,9.9,22.1,21.4
			C485.1,153.5,475.5,163.1,462.8,163.1z"/>
		<path class="st0" d="M513.6,152.6c-0.5-0.3-1.5-0.7-1.7-1.4c-0.4-1.3-1-3.4-0.4-4.1c3.6-3.8,7.5-7.4,11.4-10.8
			c0.6-0.5,2.8-0.1,3.4,0.6c0.6,0.7,0.7,2.8,0.1,3.5c-3.6,4-7.5,7.9-11.3,11.7C514.8,152.4,514.4,152.3,513.6,152.6z"/>
		<path class="st0" d="M494.7,115.9c1.5,1.2,2.9,2.1,4.1,3.2c2.5,2.2,5.3,4.3,7.4,6.9c0.9,1.1,0.6,3.1,0.9,4.7
			c-1.5,0-3.5,0.5-4.5-0.2c-3.6-2.8-6.9-5.9-10-9.1c-0.7-0.7-0.9-2.4-0.7-3.5C492.2,117.1,493.6,116.6,494.7,115.9z"/>
		<path class="st0" d="M423.5,108.2c0.9,0.7,2.4,1.2,2.7,2.1c0.3,0.9-0.3,3-1,3.3c-4.6,2.2-9.3,4.1-14.1,5.8
			c-0.9,0.3-2.7-0.9-3.5-1.9c-0.3-0.4,0.6-2.7,1.5-3.1C413.6,112.2,418.4,110.3,423.5,108.2z"/>
		<path class="st0" d="M451.6,80.2c5.4,2.1,10.3,3.9,15.1,6.1c0.7,0.3,1.3,2.5,0.9,3.3c-0.4,0.9-2.3,1.8-3.1,1.6
			c-4.8-1.6-9.6-3.3-14.3-5.4c-0.8-0.3-1.5-2.3-1.3-3.2C449.2,81.6,450.7,81,451.6,80.2z"/>
		<path class="st0" d="M411,128.5c2.4,1.6,3.5,2.1,4.2,2.9c2.8,3.1,5.6,6.2,8.1,9.5c0.8,1,0.3,3,0.3,4.5c-1.5-0.2-3.6,0.3-4.4-0.6
			c-3.2-3.2-6.2-6.6-8.8-10.3C409.6,133.5,410.7,131.2,411,128.5z"/>
		<path class="st0" d="M496.1,90.5c0.3,1.8,1.3,4.1,0.7,4.9c-3.4,3.7-7.1,7.2-11,10.4c-0.7,0.6-2.8-0.1-3.9-0.7
			c-0.4-0.2-0.5-2.4,0-2.9c3.7-3.7,7.5-7.3,11.4-10.8C493.5,90.9,494.2,91,496.1,90.5z"/>
		<path class="st0" d="M444.4,113.3c-1.5-0.9-2.8-1.3-3.1-2.1c-0.4-0.8-0.3-2.6,0.3-3c4.1-3.3,8.3-6.4,12.7-9.3
			c0.7-0.4,2.5,0.3,3.4,1c0.5,0.3,0.6,2.2,0.2,2.5C453.5,106.1,449,109.7,444.4,113.3z"/>
	</g>
</g>
</svg>
